# xmcd
#
# Track frame offsets:
#	150
#	19210
#	37350
#	55485
#	71802
#	87810
#	104662
#	121862
#	136235
#	157095
#	169075
#	186240
#	202725
#	220930
#	238270
#	252885
#	266312
#	284762
#	297807
#
# Disc length: 4311 seconds
#
# Revision: 3
# Processed by: cddbd v1.5.2PL0 Copyright (c) Steve Scherf et al.
# Submitted via: audiograbber 1.82.02
#
DISCID=2a10d513
DTITLE=John Denver - The Rocky Mountain Collection CD 2
DYEAR=1983
DGENRE=Country
TTITLE0=Fly Away
TTITLE1=Looking For Space
TTITLE2=Windsong
TTITLE3=Calypso
TTITLE4=I'm Sorry
TTITLE5=Like A Sad Song
TTITLE6=Come And Let Me Look In Your Eyes
TTITLE7=How Can I Leave You Again
TTITLE8=Thirsty Boots
TTITLE9=It Amazes Me
TTITLE10=I Want To Live
TTITLE11=Autograph
TTITLE12=Some Days Are Diamonds (Some Days Are Stone)
TTITLE13=Seasons Of The Heart
TTITLE14=Shanghai Breezes
TTITLE15=Perhaps Love (With Placido Domingo)
TTITLE16=Wild Montana Skies (Duet With Emmylou Harris)
TTITLE17=Love Again
TTITLE18=Flying For Me
EXTD=
EXTT0=
EXTT1=
EXTT2=
EXTT3=
EXTT4=
EXTT5=
EXTT6=
EXTT7=
EXTT8=
EXTT9=
EXTT10=
EXTT11=
EXTT12=
EXTT13=
EXTT14=
EXTT15=
EXTT16=
EXTT17=
EXTT18=
PLAYORDER=
